<?xml version="1.0" encoding="UTF-8"?>
<svg id="Layer_1" data-name="Layer 1" xmlns="http://www.w3.org/2000/svg" viewBox="0 0 2141 1076">
  <defs>
    <style>
      .cls-1 {
        fill: #fff;
      }
    </style>
  </defs>
  <g>
    <path class="cls-1" d="m700.07,440.71c-10.56,0-20.4-1.32-29.53-3.96-9.13-2.64-16.87-5.75-23.2-9.32l-8.4,8.53h-10.35l-1.58-62.48h10.47c2.35,5.94,5.36,12.2,9.01,18.8,3.65,6.59,7.87,12.49,12.67,17.7,4.95,5.45,10.49,9.89,16.62,13.3,6.13,3.42,13.3,5.13,21.5,5.13,11.04,0,19.51-2.7,25.39-8.11,5.89-5.41,8.83-12.21,8.83-20.42,0-6.74-2.5-12.41-7.49-17s-12.73-8.56-23.2-11.9c-6.82-2.2-13.09-4.24-18.82-6.12-5.72-1.88-11.1-3.79-16.14-5.75-11.61-4.63-20.24-11.26-25.88-19.88-5.64-8.62-8.46-18.25-8.46-28.9,0-6.75,1.46-13.23,4.38-19.45,2.92-6.22,7.19-11.81,12.79-16.76,5.36-4.63,12.22-8.41,20.58-11.34,8.36-2.92,17.46-4.39,27.28-4.39s18.55,1.34,26.92,4.02c8.36,2.68,14.94,5.36,19.73,8.04l7.43-7.31h10.6l.97,58.94h-10.47c-2.44-6.35-5.3-12.84-8.59-19.47-3.29-6.63-6.76-12.15-10.41-16.54-3.98-4.72-8.57-8.48-13.76-11.29-5.2-2.81-11.29-4.21-18.27-4.21-8.77,0-15.94,2.48-21.5,7.44-5.56,4.96-8.34,11.1-8.34,18.42,0,6.91,2.41,12.57,7.25,16.96,4.83,4.39,12.36,8.25,22.59,11.59,6.01,2.03,12.14,4.06,18.39,6.1,6.25,2.03,11.81,3.98,16.68,5.85,11.77,4.55,20.72,10.84,26.86,18.84,6.13,8.01,9.19,17.95,9.19,29.82,0,7.48-1.75,14.72-5.24,21.71s-8.2,12.8-14.13,17.44c-6.49,5.12-14,9.07-22.53,11.83-8.53,2.76-18.47,4.15-29.84,4.15Z"/>
    <path class="cls-1" d="m865.09,435.96h-76.97v-8.89c2.11-.16,4.18-.37,6.21-.61,2.03-.24,3.77-.65,5.24-1.22,2.6-.98,4.42-2.38,5.48-4.2,1.05-1.83,1.58-4.24,1.58-7.25v-70.88c0-2.84-.65-5.34-1.95-7.49-1.3-2.15-2.92-3.88-4.87-5.18-1.46-.97-3.67-1.91-6.64-2.8-2.97-.89-5.66-1.46-8.1-1.7v-8.89l59.68-3.17,1.83,1.83v96.7c0,2.84.61,5.26,1.83,7.25s2.96,3.47,5.24,4.45c1.62.73,3.41,1.38,5.36,1.95s3.98.97,6.09,1.22v8.89Zm-17.78-166.12c0,6.17-2.38,11.43-7.12,15.77-4.75,4.35-10.37,6.52-16.87,6.52s-12.24-2.17-16.99-6.52c-4.75-4.34-7.12-9.6-7.12-15.77s2.38-11.45,7.12-15.83c4.75-4.38,10.41-6.58,16.99-6.58s12.22,2.19,16.93,6.58c4.71,4.38,7.06,9.67,7.06,15.83Z"/>
    <path class="cls-1" d="m950.71,435.96h-76.73v-8.89c2.12-.16,4.19-.37,6.19-.61,2-.24,3.78-.65,5.33-1.22,2.61-.98,4.39-2.38,5.33-4.2.94-1.83,1.41-4.24,1.41-7.25v-134.94c0-3.08-.63-5.94-1.89-8.59-1.26-2.63-2.94-4.64-5.05-6.03-1.63-1.05-4.08-2.07-7.37-3.04-3.29-.98-6.19-1.54-8.71-1.71v-8.89l61.38-3.17,1.83,1.95v162.83c0,3,.53,5.44,1.59,7.31s2.78,3.33,5.15,4.38c1.63.73,3.35,1.38,5.15,1.95,1.8.57,3.92.97,6.38,1.22v8.89Z"/>
    <path class="cls-1" d="m1101,324.04c-3.65.57-7.21,1.95-10.66,4.14-3.45,2.19-6.32,5.6-8.59,10.23-5.68,11.85-11.27,23.81-16.75,35.87-5.48,12.06-10.86,23.73-16.14,35.01-1.62,3.41-3.47,7.8-5.54,13.15-2.07,5.36-3.8,10.23-5.18,14.61h-22.41c-9.34-21.68-17.32-39.66-23.93-53.95-6.62-14.29-13.62-29.64-21.01-46.04-1.7-3.82-4.37-6.82-7.98-9.01-3.61-2.19-7.29-3.53-11.02-4.02v-8.89h75.02v8.89c-2.76.08-6,.69-9.74,1.83-3.73,1.14-5.6,2.6-5.6,4.38,0,.49.16,1.22.49,2.19.32.98.73,2.07,1.22,3.29,2.6,6.17,6.53,15.06,11.78,26.66,5.25,11.61,10.81,23.82,16.67,36.64,4.05-8.85,7.92-17.51,11.61-25.99,3.69-8.48,8.25-19.29,13.68-32.44.73-1.95,1.16-3.53,1.28-4.75.12-1.22.18-2.03.18-2.44,0-1.46-.71-2.74-2.14-3.84-1.42-1.1-3.11-2.05-5.07-2.86-2.04-.81-3.99-1.42-5.86-1.83-1.87-.4-3.42-.69-4.64-.85v-8.89h50.3v8.89Z"/>
    <path class="cls-1" d="m1234.48,406.86c-2.84,4.62-6.27,8.99-10.29,13.09-4.02,4.1-8.59,7.61-13.7,10.54-5.44,3.08-10.94,5.42-16.5,7-5.56,1.59-11.96,2.38-19.18,2.38-12.02,0-22.39-1.7-31.12-5.11-8.73-3.41-15.94-8-21.62-13.76-5.68-5.76-9.93-12.56-12.73-20.4-2.8-7.84-4.2-16.34-4.2-25.52,0-8.28,1.52-16.22,4.57-23.81,3.04-7.59,7.37-14.35,12.97-20.28,5.52-5.76,12.48-10.43,20.89-14,8.4-3.57,17.8-5.36,28.2-5.36,11.37,0,20.7,1.38,28.01,4.14,7.31,2.76,13.36,6.58,18.15,11.45,4.63,4.63,8,10.09,10.11,16.38,2.11,6.29,3.17,12.89,3.17,19.79v7.92h-82.33c0,16.65,3.21,29.31,9.62,38,6.41,8.69,16.6,13.03,30.57,13.03,7.63,0,14.49-2.09,20.58-6.27,6.09-4.18,11.29-9.48,15.59-15.89l9.26,6.7Zm-46.52-46.28c0-4.87-.24-9.86-.73-14.98-.49-5.11-1.34-9.3-2.56-12.54-1.38-3.82-3.27-6.7-5.66-8.65-2.4-1.95-5.42-2.92-9.07-2.92-6.25,0-11.25,3.16-14.98,9.5-3.73,6.33-5.76,16.36-6.09,30.08l39.1-.49Z"/>
    <path class="cls-1" d="m1367.48,337.43c0,6.17-1.91,11.59-5.72,16.26-3.82,4.67-8.85,7-15.1,7-5.93,0-10.94-1.49-15.04-4.49-4.1-2.99-6.15-7.4-6.15-13.22,0-2.83.2-5.03.61-6.61.4-1.58.77-3.05,1.1-4.43-3.74.16-7.67,1.45-11.81,3.86s-7.8,5.63-10.96,9.65v66.86c0,2.84.45,5.2,1.34,7.07.89,1.87,2.39,3.33,4.51,4.38,1.78.89,4.69,1.64,8.71,2.25,4.02.61,6.92.95,8.71,1.03v8.89h-81.48v-8.89c2.03-.16,4.08-.39,6.15-.67,2.07-.28,3.84-.67,5.3-1.16,2.6-.89,4.38-2.27,5.36-4.14s1.46-4.3,1.46-7.31v-70.88c0-2.92-.69-5.54-2.07-7.85-1.38-2.31-3.04-4.16-4.99-5.54-1.46-.98-3.31-1.78-5.54-2.44-2.23-.65-4.69-1.1-7.37-1.34v-8.89l58.09-3.17,1.83,1.83v17.66h.49c5.6-6.49,11.55-11.59,17.84-15.29,6.29-3.69,12.85-5.54,19.67-5.54,7.55,0,13.62,2.33,18.21,7,4.59,4.67,6.88,10.7,6.88,18.09Z"/>
    <path class="cls-1" d="m1450.3,435.96h-76.73v-8.89c2.12-.16,4.19-.37,6.19-.61,2-.24,3.78-.65,5.33-1.22,2.61-.98,4.39-2.38,5.33-4.2s1.41-4.24,1.41-7.25v-134.94c0-3.08-.63-5.94-1.89-8.59-1.26-2.63-2.94-4.64-5.05-6.03-1.63-1.05-4.08-2.07-7.37-3.04-3.29-.98-6.19-1.54-8.71-1.71v-8.89l61.38-3.17,1.83,1.95v162.83c0,3,.53,5.44,1.59,7.31s2.78,3.33,5.15,4.38c1.63.73,3.35,1.38,5.15,1.95,1.8.57,3.92.97,6.38,1.22v8.89Z"/>
    <path class="cls-1" d="m1592.67,406.86c-2.84,4.62-6.28,8.99-10.29,13.09-4.02,4.1-8.59,7.61-13.7,10.54-5.44,3.08-10.94,5.42-16.51,7-5.56,1.59-11.95,2.38-19.18,2.38-12.02,0-22.39-1.7-31.12-5.11-8.73-3.41-15.94-8-21.62-13.76-5.68-5.76-9.93-12.56-12.73-20.4-2.8-7.84-4.2-16.34-4.2-25.52,0-8.28,1.52-16.22,4.57-23.81,3.04-7.59,7.37-14.35,12.97-20.28,5.52-5.76,12.48-10.43,20.89-14,8.4-3.57,17.8-5.36,28.2-5.36,11.37,0,20.71,1.38,28.01,4.14,7.31,2.76,13.35,6.58,18.15,11.45,4.63,4.63,8,10.09,10.11,16.38,2.1,6.29,3.16,12.89,3.16,19.79v7.92h-82.33c0,16.65,3.21,29.31,9.62,38,6.41,8.69,16.6,13.03,30.57,13.03,7.63,0,14.49-2.09,20.58-6.27,6.09-4.18,11.29-9.48,15.59-15.89l9.26,6.7Zm-46.52-46.28c0-4.87-.24-9.86-.73-14.98-.49-5.11-1.34-9.3-2.56-12.54-1.38-3.82-3.27-6.7-5.66-8.65-2.4-1.95-5.42-2.92-9.07-2.92-6.25,0-11.25,3.16-14.98,9.5s-5.76,16.36-6.09,30.08l39.1-.49Z"/>
    <path class="cls-1" d="m1743.57,433.4c-3.57,1.54-7.78,2.96-12.64,4.26-4.86,1.3-10.01,1.95-15.43,1.95-9.97,0-17.3-1.48-22-4.45-4.7-2.96-7.9-7.2-9.6-12.73h-.73c-2.76,2.76-5.43,5.12-7.99,7.07s-5.31,3.61-8.24,4.99c-3.82,1.78-7.5,3.12-11.04,4.02-3.54.89-8.48,1.34-14.82,1.34-9.44,0-17.49-2.79-24.15-8.35-6.67-5.57-10-12.95-10-22.14,0-5.28.73-9.78,2.19-13.47,1.46-3.7,3.54-6.97,6.22-9.82,2.44-2.6,5.27-4.75,8.48-6.47,3.21-1.7,6.73-3.29,10.55-4.75,7.32-2.68,16.1-5.47,26.35-8.35,10.24-2.89,17.73-5.47,22.45-7.75v-11.69c0-2.03-.16-4.71-.49-8.04-.32-3.33-1.01-6.13-2.07-8.4-1.14-2.6-2.93-4.79-5.36-6.58-2.44-1.78-5.65-2.68-9.62-2.68-3.58,0-6.56.51-8.96,1.52-2.4,1.01-4.33,2.05-5.79,3.1.24,1.63.94,4.1,2.07,7.43,1.14,3.33,1.71,6.54,1.71,9.62,0,1.38-.37,3.11-1.1,5.18s-1.79,3.71-3.18,4.93c-1.87,1.62-3.97,2.88-6.29,3.77-2.32.9-5.88,1.34-10.69,1.34-6.84,0-12.01-1.64-15.51-4.93-3.5-3.29-5.25-7.57-5.25-12.85,0-4.55,1.8-8.63,5.42-12.24,3.61-3.61,8.02-6.6,13.21-8.95,5.12-2.44,11-4.32,17.66-5.67,6.66-1.34,12.83-2.01,18.51-2.01,7.88,0,15.1.47,21.68,1.4,6.58.94,12.5,2.86,17.78,5.79,5.03,2.84,9.03,6.96,11.99,12.36,2.96,5.4,4.45,12.44,4.45,21.13,0,9.18-.18,20.05-.55,32.64-.36,12.59-.55,20.87-.55,24.84,0,3.66.55,6.54,1.64,8.65,1.09,2.11,2.78,3.69,5.05,4.75,1.38.65,3.55,1.03,6.52,1.16,2.97.12,5.67.18,8.1.18v8.89Zm-60.41-63.45c-4.56,1.55-9.09,3.32-13.57,5.31-4.48,1.99-8.15,4.09-11,6.29-3.01,2.28-5.38,5.19-7.09,8.73-1.71,3.54-2.57,7.71-2.57,12.51,0,6.35,1.45,10.95,4.34,13.8,2.89,2.85,6.45,4.27,10.69,4.27,4.48,0,8.17-.92,11.06-2.75,2.89-1.83,5.44-4.09,7.64-6.78l.49-41.39Z"/>
    <path class="cls-1" d="m1868.16,268.13c0,2.03-.32,4.26-.98,6.7-.65,2.44-1.7,4.51-3.16,6.21-1.7,2.03-3.61,3.58-5.73,4.63-2.11,1.06-5.28,1.58-9.5,1.58-6.42,0-11.45-2.23-15.1-6.7-3.65-4.46-7.55-11.9-11.69-22.29-3.25,1.38-5.89,4.95-7.92,10.69-2.03,5.75-3.04,18.11-3.04,37.07v9.6h33.61v13.28h-33.37v83.81c0,3.16.73,5.62,2.19,7.36,1.46,1.74,3.37,3.02,5.73,3.83,1.95.65,4.51,1.28,7.67,1.88,3.17.61,6.01,1.03,8.53,1.28v8.89h-82.33v-8.89c2.12-.16,4.19-.36,6.19-.61s3.78-.65,5.33-1.22c2.62-.98,4.4-2.37,5.33-4.2.94-1.82,1.41-4.24,1.41-7.24v-84.91h-24.72v-13.28h24.72c0-8.67,1.26-17.08,3.77-25.23,2.52-8.14,6.41-15.42,11.69-21.82,5.11-6.32,11.85-11.43,20.22-15.32,8.37-3.89,18.19-5.84,29.48-5.84,10.07,0,17.86,1.91,23.38,5.72,5.52,3.82,8.28,8.81,8.28,14.98Z"/>
  </g>
  <g>
    <path class="cls-1" d="m712.02,593.9h-59.39l-12.16,27.91h-13.25l48.95-109.12h12.94l48.8,109.12h-13.56l-12.32-27.91Zm-4.99-11.53l-24.79-56.12-24.63,56.12h49.42Z"/>
    <path class="cls-1" d="m836.11,516.58c6.96,2.81,13.09,6.7,18.4,11.69l-7.48,9.04c-4.26-4.26-9.22-7.58-14.89-9.98-5.67-2.39-11.46-3.58-17.38-3.58-8.11,0-15.56,1.93-22.37,5.77-6.81,3.85-12.19,9.09-16.14,15.74-3.95,6.65-5.92,13.93-5.92,21.83s1.97,15.17,5.92,21.82c3.95,6.65,9.33,11.93,16.14,15.82,6.81,3.9,14.26,5.84,22.37,5.84,5.92,0,11.69-1.14,17.3-3.43,5.61-2.29,10.6-5.51,14.97-9.67l7.64,8.26c-5.51,5.2-11.77,9.25-18.79,12.16-7.02,2.91-14.27,4.37-21.75,4.37-10.29,0-19.75-2.44-28.37-7.33-8.63-4.88-15.46-11.56-20.5-20.03-5.04-8.47-7.56-17.74-7.56-27.83s2.55-19.15,7.64-27.52c5.09-8.37,11.98-14.99,20.66-19.88,8.68-4.88,18.21-7.33,28.61-7.33,7.38,0,14.55,1.4,21.51,4.21Z"/>
    <path class="cls-1" d="m961.14,593.9h-59.39l-12.16,27.91h-13.25l48.95-109.12h12.94l48.8,109.12h-13.56l-12.32-27.91Zm-4.99-11.53l-24.79-56.12-24.63,56.12h49.42Z"/>
    <path class="cls-1" d="m1092.4,519.85c8.52,4.78,15.25,11.33,20.19,19.64,4.93,8.32,7.4,17.56,7.4,27.75s-2.47,19.44-7.4,27.75c-4.94,8.32-11.72,14.87-20.34,19.64-8.63,4.78-18.24,7.17-28.84,7.17h-43.65v-109.12h44.12c10.5,0,20.01,2.39,28.53,7.17Zm-60.17,4.37v86.05h31.8c8,0,15.3-1.87,21.9-5.61,6.6-3.74,11.82-8.88,15.67-15.43,3.84-6.55,5.77-13.82,5.77-21.83s-1.95-15.43-5.84-21.98c-3.9-6.55-9.17-11.72-15.82-15.51-6.65-3.79-14.03-5.69-22.14-5.69h-31.33Z"/>
    <path class="cls-1" d="m1232.39,524.22h-61.58v36.63h55.03v11.38h-55.03v38.04h63.6v11.54h-76.08v-109.12h74.05v11.54Z"/>
    <path class="cls-1" d="m1385.78,621.8h-11.54l-.16-90.73-39.75,79.19h-7.48l-39.6-79.19v90.73h-11.85v-109.12h15.43l39.91,79.19,39.75-79.19h15.28v109.12Z"/>
    <path class="cls-1" d="m1473.24,583.92v37.88h-12.32v-37.57l-42.25-71.55h12.94l35.39,57.21,34.92-57.21h12.78l-41.47,71.24Z"/>
  </g>
  <g>
    <path class="cls-1" d="m408.57,247.42v160.1l-128.39-128.39c16.26-9.47,59.43-30.16,128.39-31.7Z"/>
    <polygon class="cls-1" points="408.57 430.64 408.57 533.57 272.84 397.84 272.84 294.89 408.57 430.64"/>
    <path class="cls-1" d="m272.84,420.93l135.72,135.72v65.15c-31.4-4.23-83.02-31.23-108.59-77.96-18.49-33.79-27.13-72.06-27.13-110.57v-12.34Z"/>
    <path class="cls-1" d="m560.62,420.93l-135.72,135.72v65.15c31.4-4.23,83.02-31.23,108.59-77.96,18.49-33.79,27.13-72.06,27.13-110.57v-12.34Z"/>
    <path class="cls-1" d="m553.33,279.14l-128.43,128.45v-160.17c69.01,1.54,112.21,22.25,128.43,31.72Z"/>
    <polygon class="cls-1" points="560.62 294.97 560.62 397.9 424.9 533.62 424.9 430.69 560.62 294.97"/>
  </g>
  <g>
    <path class="cls-1" d="m669.53,780.02h-17.68v48.33h-6.18v-48.33h-17.6v-5.71h41.46v5.71Z"/>
    <path class="cls-1" d="m708.28,791.72c2.73,2.81,4.09,6.68,4.09,11.62v25.01h-6.02v-23.47c0-3.6-1.02-6.43-3.05-8.49-2.03-2.06-4.85-3.09-8.45-3.09-4.27.05-7.63,1.45-10.08,4.21-2.45,2.75-3.67,6.4-3.67,10.92v19.92h-6.02v-57.28h6.02v25.86c1.39-3.14,3.42-5.48,6.1-7.03,2.68-1.54,5.92-2.34,9.73-2.39,4.84,0,8.62,1.4,11.35,4.21Z"/>
    <path class="cls-1" d="m757.96,793.65c3.27,4.09,4.75,9.64,4.44,16.64h-33.2c.51,4.01,2.11,7.23,4.79,9.65,2.68,2.42,6,3.63,9.96,3.63,2.47,0,4.79-.45,6.95-1.35,2.16-.9,4.04-2.17,5.64-3.82l3.32,3.47c-1.96,2.16-4.34,3.82-7.14,4.98-2.81,1.16-5.88,1.74-9.23,1.74-3.96,0-7.48-.86-10.54-2.59-3.06-1.72-5.44-4.14-7.14-7.26-1.7-3.11-2.55-6.68-2.55-10.69s.85-7.5,2.55-10.62c1.7-3.11,4.08-5.55,7.14-7.3,3.06-1.75,6.55-2.62,10.46-2.62,6.43,0,11.28,2.05,14.55,6.14Zm-.96,11.85c-.21-3.96-1.53-7.11-3.98-9.46-2.45-2.34-5.65-3.51-9.61-3.51s-7.09,1.18-9.69,3.55c-2.6,2.37-4.1,5.51-4.52,9.42h27.79Z"/>
    <path class="cls-1" d="m832.19,780.02h-28.18v19.38h25.25v5.64h-25.25v23.32h-6.18v-54.04h34.36v5.71Z"/>
    <path class="cls-1" d="m877.28,787.74v40.61h-6.02v-9.26c-2.62,6.23-7.77,9.39-15.44,9.5-4.74,0-8.45-1.42-11.16-4.25-2.7-2.83-4.05-6.69-4.05-11.58v-25.01h6.02v23.47c0,3.6,1,6.43,3.01,8.49,2.01,2.06,4.76,3.09,8.26,3.09,4.17-.05,7.44-1.47,9.8-4.25,2.37-2.78,3.55-6.41,3.55-10.89v-19.92h6.02Z"/>
    <path class="cls-1" d="m914.49,825.57c-3.04,2.01-6.15,3.01-9.34,3.01s-5.56-.96-7.41-2.9c-1.85-1.93-2.78-4.8-2.78-8.61v-23.39h-5.87v-4.71h5.87v-10.65h5.95v10.65h12.89v4.71h-12.89v22.39c0,2.42.45,4.18,1.35,5.29.9,1.11,2.25,1.66,4.05,1.66,2.11-.1,4.27-.8,6.49-2.08l1.7,4.63Z"/>
    <path class="cls-1" d="m960.42,787.74v40.61h-6.02v-9.26c-2.62,6.23-7.77,9.39-15.44,9.5-4.74,0-8.45-1.42-11.16-4.25-2.7-2.83-4.05-6.69-4.05-11.58v-25.01h6.02v23.47c0,3.6,1,6.43,3.01,8.49,2.01,2.06,4.76,3.09,8.26,3.09,4.17-.05,7.44-1.47,9.8-4.25,2.37-2.78,3.55-6.41,3.55-10.89v-19.92h6.02Z"/>
    <path class="cls-1" d="m988.33,789.98c2.5-1.59,5.47-2.42,8.92-2.47v5.87c-4.22-.05-7.62,1.12-10.19,3.51-2.57,2.39-4.04,5.67-4.4,9.84v21.62h-6.02v-40.61h6.02v9.11c1.29-2.98,3.18-5.28,5.67-6.87Z"/>
    <path class="cls-1" d="m1037.51,793.65c3.27,4.09,4.75,9.64,4.44,16.64h-33.2c.51,4.01,2.11,7.23,4.79,9.65,2.68,2.42,6,3.63,9.96,3.63,2.47,0,4.79-.45,6.95-1.35,2.16-.9,4.04-2.17,5.64-3.82l3.32,3.47c-1.96,2.16-4.34,3.82-7.14,4.98-2.81,1.16-5.88,1.74-9.23,1.74-3.96,0-7.48-.86-10.54-2.59-3.06-1.72-5.44-4.14-7.14-7.26-1.7-3.11-2.55-6.68-2.55-10.69s.85-7.5,2.55-10.62c1.7-3.11,4.08-5.55,7.14-7.3,3.06-1.75,6.55-2.62,10.46-2.62,6.43,0,11.28,2.05,14.55,6.14Zm-.96,11.85c-.21-3.96-1.53-7.11-3.98-9.46-2.45-2.34-5.65-3.51-9.61-3.51s-7.09,1.18-9.69,3.55c-2.6,2.37-4.1,5.51-4.52,9.42h27.79Z"/>
    <path class="cls-1" d="m1102.63,775.43c3.04.9,5.69,2.12,7.95,3.67l-2.62,5.48c-2.32-1.49-4.8-2.61-7.45-3.36-2.65-.75-5.13-1.12-7.45-1.12-3.5,0-6.29.66-8.38,1.97-2.08,1.31-3.13,3.13-3.13,5.44,0,2.01.59,3.66,1.78,4.94,1.18,1.29,2.64,2.3,4.36,3.05,1.72.75,4.1,1.58,7.14,2.51,3.65,1.13,6.61,2.21,8.88,3.24,2.26,1.03,4.19,2.55,5.79,4.56,1.59,2.01,2.39,4.66,2.39,7.95,0,2.93-.81,5.52-2.43,7.76-1.62,2.24-3.91,3.98-6.87,5.21-2.96,1.23-6.37,1.85-10.23,1.85s-7.62-.75-11.27-2.24c-3.66-1.49-6.79-3.5-9.42-6.02l2.78-5.33c2.47,2.37,5.31,4.22,8.53,5.56,3.22,1.34,6.37,2.01,9.46,2.01,3.91,0,7-.75,9.26-2.24,2.26-1.49,3.4-3.55,3.4-6.18,0-2.11-.59-3.82-1.78-5.13-1.18-1.31-2.66-2.34-4.44-3.09-1.78-.75-4.21-1.58-7.3-2.51-3.6-1.08-6.52-2.12-8.76-3.13-2.24-1-4.14-2.5-5.71-4.48-1.57-1.98-2.35-4.59-2.35-7.84,0-2.78.77-5.22,2.32-7.33,1.54-2.11,3.73-3.73,6.56-4.86,2.83-1.13,6.1-1.7,9.8-1.7,3.09,0,6.15.45,9.19,1.35Z"/>
    <path class="cls-1" d="m1146.25,825.57c-3.04,2.01-6.15,3.01-9.34,3.01s-5.56-.96-7.41-2.9c-1.85-1.93-2.78-4.8-2.78-8.61v-23.39h-5.87v-4.71h5.87v-10.65h5.95v10.65h12.89v4.71h-12.89v22.39c0,2.42.45,4.18,1.35,5.29.9,1.11,2.25,1.66,4.05,1.66,2.11-.1,4.27-.8,6.49-2.08l1.7,4.63Z"/>
    <path class="cls-1" d="m1182.14,828.35l-.08-6.33c-3.09,4.38-8.03,6.56-14.82,6.56-2.73,0-5.15-.54-7.26-1.62s-3.73-2.55-4.86-4.4c-1.13-1.85-1.7-3.94-1.7-6.25,0-3.55,1.34-6.37,4.01-8.45,2.67-2.08,6.41-3.15,11.19-3.2h13.36v-2.55c0-3.04-.93-5.39-2.78-7.06-1.85-1.67-4.55-2.51-8.11-2.51-4.17,0-8.47,1.57-12.89,4.71l-2.55-4.25c2.88-1.9,5.55-3.29,7.99-4.17,2.44-.87,5.31-1.31,8.61-1.31,4.99,0,8.84,1.24,11.54,3.71,2.7,2.47,4.08,5.89,4.13,10.27l.08,26.87h-5.87Zm-4.83-7.26c2.44-1.65,4.03-3.91,4.75-6.79l-.08-4.86h-12.58c-6.9,0-10.34,2.21-10.34,6.64,0,2.27.85,4.08,2.55,5.44,1.7,1.36,3.96,2.05,6.79,2.05,3.5,0,6.47-.82,8.92-2.47Z"/>
    <path class="cls-1" d="m1214.68,789.98c2.5-1.59,5.47-2.42,8.92-2.47v5.87c-4.22-.05-7.62,1.12-10.19,3.51-2.57,2.39-4.04,5.67-4.4,9.84v21.62h-6.02v-40.61h6.02v9.11c1.29-2.98,3.18-5.28,5.67-6.87Z"/>
    <path class="cls-1" d="m1254.25,825.57c-3.04,2.01-6.15,3.01-9.34,3.01s-5.56-.96-7.41-2.9c-1.85-1.93-2.78-4.8-2.78-8.61v-23.39h-5.87v-4.71h5.87v-10.65h5.95v10.65h12.89v4.71h-12.89v22.39c0,2.42.45,4.18,1.35,5.29.9,1.11,2.25,1.66,4.05,1.66,2.11-.1,4.27-.8,6.49-2.08l1.7,4.63Z"/>
    <path class="cls-1" d="m1282.66,788.43c2.26.67,4.27,1.57,6.02,2.7l-2.32,4.63c-1.6-1.03-3.37-1.83-5.33-2.39-1.96-.57-3.86-.85-5.71-.85-2.42,0-4.36.45-5.83,1.35-1.47.9-2.2,2.28-2.2,4.13,0,1.29.41,2.34,1.24,3.17.82.82,1.85,1.48,3.09,1.97,1.24.49,2.93,1.07,5.1,1.74,2.83.88,5.13,1.73,6.91,2.55,1.78.82,3.28,2.01,4.52,3.55s1.85,3.58,1.85,6.1c0,3.76-1.43,6.61-4.28,8.57-2.86,1.96-6.4,2.93-10.62,2.93-2.93,0-5.79-.5-8.57-1.51-2.78-1-5.12-2.41-7.03-4.21l2.32-4.4c1.7,1.6,3.77,2.86,6.21,3.78,2.44.93,4.88,1.39,7.3,1.39,2.57,0,4.67-.51,6.29-1.54,1.62-1.03,2.43-2.55,2.43-4.56s-.8-3.42-2.39-4.4c-1.6-.98-4.01-1.93-7.26-2.86-2.73-.82-4.94-1.63-6.64-2.43-1.7-.8-3.15-1.94-4.36-3.44-1.21-1.49-1.81-3.45-1.81-5.87,0-3.65,1.34-6.42,4.01-8.3,2.68-1.88,6.05-2.82,10.11-2.82,2.37,0,4.68.34,6.95,1Z"/>
    <path class="cls-1" d="m1369.9,828.35h-6.18v-23.93h-32.58v23.93h-6.18v-54.04h6.18v24.47h32.58v-24.47h6.18v54.04Z"/>
    <path class="cls-1" d="m1417.57,793.65c3.27,4.09,4.75,9.64,4.44,16.64h-33.2c.51,4.01,2.11,7.23,4.79,9.65,2.68,2.42,6,3.63,9.96,3.63,2.47,0,4.79-.45,6.95-1.35,2.16-.9,4.04-2.17,5.64-3.82l3.32,3.47c-1.96,2.16-4.34,3.82-7.14,4.98-2.81,1.16-5.88,1.74-9.23,1.74-3.96,0-7.48-.86-10.54-2.59-3.06-1.72-5.44-4.14-7.14-7.26-1.7-3.11-2.55-6.68-2.55-10.69s.85-7.5,2.55-10.62c1.7-3.11,4.08-5.55,7.14-7.3,3.06-1.75,6.55-2.62,10.46-2.62,6.43,0,11.28,2.05,14.55,6.14Zm-.96,11.85c-.21-3.96-1.53-7.11-3.98-9.46-2.45-2.34-5.65-3.51-9.61-3.51s-7.09,1.18-9.69,3.55c-2.6,2.37-4.1,5.51-4.52,9.42h27.79Z"/>
    <path class="cls-1" d="m1445.6,789.98c2.5-1.59,5.47-2.42,8.92-2.47v5.87c-4.22-.05-7.62,1.12-10.19,3.51-2.57,2.39-4.04,5.67-4.4,9.84v21.62h-6.02v-40.61h6.02v9.11c1.29-2.98,3.18-5.28,5.67-6.87Z"/>
    <path class="cls-1" d="m1494.77,793.65c3.27,4.09,4.75,9.64,4.44,16.64h-33.2c.51,4.01,2.11,7.23,4.79,9.65,2.68,2.42,6,3.63,9.96,3.63,2.47,0,4.79-.45,6.95-1.35,2.16-.9,4.04-2.17,5.64-3.82l3.32,3.47c-1.96,2.16-4.34,3.82-7.14,4.98-2.81,1.16-5.88,1.74-9.23,1.74-3.96,0-7.48-.86-10.54-2.59-3.06-1.72-5.44-4.14-7.14-7.26-1.7-3.11-2.55-6.68-2.55-10.69s.85-7.5,2.55-10.62c1.7-3.11,4.08-5.55,7.14-7.3,3.06-1.75,6.55-2.62,10.46-2.62,6.43,0,11.28,2.05,14.55,6.14Zm-.96,11.85c-.21-3.96-1.53-7.11-3.98-9.46-2.45-2.34-5.65-3.51-9.61-3.51s-7.09,1.18-9.69,3.55c-2.6,2.37-4.1,5.51-4.52,9.42h27.79Z"/>
  </g>
  <rect class="cls-1" x="1066.54" y="260.42" width="8.85" height="887.48" transform="translate(1775.13 -366.8) rotate(90)"/>
</svg>